<?xml version="1.0" encoding="UTF-8" standalone="no"?>
<svg
   xmlns:dc="http://purl.org/dc/elements/1.1/"
   xmlns:cc="http://creativecommons.org/ns#"
   xmlns:rdf="http://www.w3.org/1999/02/22-rdf-syntax-ns#"
   xmlns:svg="http://www.w3.org/2000/svg"
   xmlns="http://www.w3.org/2000/svg"
   xmlns:sodipodi="http://sodipodi.sourceforge.net/DTD/sodipodi-0.dtd"
   xmlns:inkscape="http://www.inkscape.org/namespaces/inkscape"
   sodipodi:docname="branding_top.svg"
   inkscape:version="1.0 (4035a4fb49, 2020-05-01)"
   id="svg8"
   version="1.1"
   viewBox="0 0 33.5 33.5"
   height="33.5mm"
   width="33.5mm">
  <defs
     id="defs2">
    <rect
       id="rect1629"
       height="19.791692"
       width="33.423484"
       y="31.164516"
       x="48.298742" />
    <rect
       id="rect883"
       height="47.234587"
       width="77.190158"
       y="31.091734"
       x="50.352485" />
  </defs>
  <sodipodi:namedview
     inkscape:document-rotation="0"
     fit-margin-bottom="0"
     fit-margin-right="0"
     fit-margin-left="0"
     fit-margin-top="0"
     inkscape:window-maximized="1"
     inkscape:window-y="0"
     inkscape:window-x="0"
     inkscape:window-height="1031"
     inkscape:window-width="1920"
     showgrid="false"
     inkscape:current-layer="layer1"
     inkscape:document-units="mm"
     inkscape:cy="50.301565"
     inkscape:cx="57.689672"
     inkscape:zoom="3.7688593"
     inkscape:pageshadow="2"
     inkscape:pageopacity="0.0"
     borderopacity="1.0"
     bordercolor="#666666"
     pagecolor="#ffffff"
     id="base" />
  <metadata
     id="metadata5">
    <rdf:RDF>
      <cc:Work
         rdf:about="">
        <dc:format>image/svg+xml</dc:format>
        <dc:type
           rdf:resource="http://purl.org/dc/dcmitype/StillImage" />
        <dc:title></dc:title>
      </cc:Work>
    </rdf:RDF>
  </metadata>
  <g
     transform="translate(-48.108517,-29.906435)"
     id="layer1"
     inkscape:groupmode="layer"
     inkscape:label="Layer 1">
    <g
       style="font-style:normal;font-weight:normal;font-size:10.5833px;line-height:1.25;font-family:sans-serif;white-space:pre;shape-inside:url(#rect883);fill:#000000;fill-opacity:1;stroke:none"
       id="text881"
       aria-label="TRÅDFREE" />
    <g
       style="font-style:normal;font-weight:normal;font-size:5.49075px;line-height:1.25;font-family:sans-serif;fill:#000000;fill-opacity:1;stroke:none;stroke-width:0.137269"
       id="text889"
       aria-label="Depau">
      <path
         id="path2370"
         style="font-style:normal;font-variant:normal;font-weight:bold;font-stretch:normal;font-family:'Roboto Condensed';-inkscape-font-specification:'Roboto Condensed,  Bold';stroke-width:0.137269"
         d="m 67.29395,36.041695 v -3.90358 h 0.983938 q 0.72656,0 1.099223,0.396792 0.375344,0.396793 0.375344,1.217188 v 0.680982 q 0,0.823076 -0.375344,1.217187 -0.372663,0.391431 -1.107266,0.391431 z m 0.748008,-3.292305 v 2.683711 h 0.184991 q 0.455775,0 0.616637,-0.222526 0.163543,-0.225206 0.163543,-0.777498 v -0.686344 q 0,-0.552292 -0.160862,-0.774818 -0.160862,-0.222525 -0.611275,-0.222525 z" />
      <path
         id="path2372"
         style="font-style:normal;font-variant:normal;font-weight:bold;font-stretch:normal;font-family:'Roboto Condensed';-inkscape-font-specification:'Roboto Condensed,  Bold';stroke-width:0.137269"
         d="m 71.288685,36.095315 q -0.512077,0 -0.80699,-0.353896 -0.294913,-0.353896 -0.294913,-0.908869 v -0.407517 q 0,-0.60055 0.276146,-0.967851 0.276146,-0.369983 0.790904,-0.369983 0.498671,0 0.758731,0.335129 0.262741,0.335129 0.262741,0.932999 v 0.466499 h -1.340515 v 0.01072 q 0,0.297594 0.10456,0.477223 0.104561,0.179629 0.33781,0.179629 0.254698,0 0.386069,-0.05094 0.134051,-0.05094 0.278827,-0.158181 l 0.150137,0.525482 q -0.142094,0.134051 -0.378025,0.211801 -0.233249,0.07775 -0.525482,0.07775 z m -0.03485,-2.396841 q -0.168905,0 -0.238612,0.160862 -0.06971,0.160862 -0.08043,0.453094 h 0.611275 v -0.107241 q 0,-0.246655 -0.06971,-0.375344 -0.06702,-0.131371 -0.222525,-0.131371 z" />
      <path
         id="path2374"
         style="font-style:normal;font-variant:normal;font-weight:bold;font-stretch:normal;font-family:'Roboto Condensed';-inkscape-font-specification:'Roboto Condensed,  Bold';stroke-width:0.137269"
         d="m 74.835688,34.813783 q 0,0.592507 -0.233249,0.93836 -0.23325,0.343172 -0.67562,0.343172 -0.171586,0 -0.297594,-0.06434 -0.123328,-0.06703 -0.214483,-0.198397 l -0.008,0.0027 v 1.321748 H 72.661373 V 33.14082 h 0.694387 l 0.02413,0.26006 0.008,0.0027 q 0.09384,-0.152819 0.222526,-0.23325 0.13137,-0.08311 0.310999,-0.08311 0.445051,0 0.678301,0.372664 0.23593,0.369982 0.23593,0.997343 z m -0.745326,-0.356577 q 0,-0.351215 -0.08579,-0.554973 -0.08579,-0.203759 -0.281508,-0.203759 -0.109922,0 -0.187672,0.05898 -0.07775,0.0563 -0.12869,0.166224 v 1.383411 q 0.04826,0.09116 0.126009,0.136733 0.08043,0.04558 0.195715,0.04558 0.198396,0 0.278827,-0.174267 0.08311,-0.176948 0.08311,-0.501352 z" />
      <path
         id="path2376"
         style="font-style:normal;font-variant:normal;font-weight:bold;font-stretch:normal;font-family:'Roboto Condensed';-inkscape-font-specification:'Roboto Condensed,  Bold';stroke-width:0.137269"
         d="m 76.562271,36.041695 q -0.02949,-0.07507 -0.05362,-0.1555 -0.02145,-0.08043 -0.03754,-0.171586 -0.101879,0.174267 -0.243973,0.278827 -0.139414,0.101879 -0.329767,0.101879 -0.348534,0 -0.552292,-0.230568 -0.203759,-0.230569 -0.203759,-0.632723 0,-0.437008 0.254698,-0.667577 0.254698,-0.230569 0.78018,-0.230569 h 0.262741 v -0.23593 q 0,-0.214483 -0.06703,-0.327086 -0.06434,-0.112603 -0.203758,-0.112603 -0.120647,0 -0.174267,0.08847 -0.05362,0.08847 -0.05362,0.265422 h -0.748007 q 0,-0.399474 0.276146,-0.662215 0.276146,-0.262741 0.748007,-0.262741 0.439689,0 0.705111,0.26006 0.265422,0.257379 0.265422,0.756051 v 1.174291 q 0,0.214482 0.02681,0.396793 0.02949,0.179629 0.09116,0.367301 z m -0.447732,-0.517439 q 0.101879,0 0.184991,-0.0563 0.08579,-0.0563 0.139414,-0.150138 v -0.54693 h -0.262741 q -0.158181,0 -0.225207,0.117966 -0.06434,0.117965 -0.06434,0.308318 0,0.147457 0.05898,0.238612 0.06166,0.08847 0.168905,0.08847 z" />
      <path
         id="path2378"
         style="font-style:normal;font-variant:normal;font-weight:bold;font-stretch:normal;font-family:'Roboto Condensed';-inkscape-font-specification:'Roboto Condensed,  Bold';stroke-width:0.137269"
         d="m 79.05563,35.722652 -0.008,-0.0027 q -0.109923,0.18231 -0.265422,0.278827 -0.152819,0.09652 -0.353896,0.09652 -0.375345,0 -0.581784,-0.28687 -0.203758,-0.28687 -0.203758,-0.914231 V 33.14082 h 0.748007 v 1.758756 q 0,0.31368 0.06435,0.450413 0.06703,0.134051 0.206439,0.134051 0.115285,0 0.198397,-0.0429 0.08579,-0.0429 0.147456,-0.131371 V 33.14082 h 0.745327 v 2.900875 h -0.654172 z" />
    </g>
    <g
       style="font-style:normal;font-variant:normal;font-weight:normal;font-stretch:normal;font-size:10.5833px;line-height:1.25;font-family:'Font Awesome 5 Brands';-inkscape-font-specification:'Font Awesome 5 Brands';white-space:pre;shape-inside:url(#rect1629);fill:#000000;fill-opacity:1;stroke:none"
       id="text1627"
       transform="matrix(0.6622257,0,0,0.6622257,27.458558,9.0407727)"
       aria-label="">
      <path
         id="path2367"
         style="font-style:normal;font-variant:normal;font-weight:normal;font-stretch:normal;font-family:'Font Awesome 5 Brands';-inkscape-font-specification:'Font Awesome 5 Brands'"
         d="m 51.730132,40.693166 q 0,0.08268 -0.103352,0.08268 -0.124023,0.02067 -0.124023,-0.08268 0,-0.06201 0.103352,-0.06201 0.124023,-0.02067 0.124023,0.06201 z m -0.558103,0.02067 q -0.124023,-0.02067 -0.103353,-0.103353 0.04134,-0.08268 0.144694,-0.04134 0.103352,0.02067 0.08268,0.103353 -0.02067,0.08268 -0.124023,0.04134 z m 0.82682,-0.144694 q 0.103352,0 0.103352,0.06201 0.02067,0.06201 -0.08268,0.103352 -0.103352,0.02067 -0.124023,-0.06201 0,-0.08268 0.103353,-0.103353 z m 1.364253,-7.916804 q 1.405595,0 2.604484,0.661456 1.19889,0.661456 1.881016,1.819005 0.702798,1.157548 0.702798,2.563143 0,1.715652 -0.971514,3.079905 -0.950844,1.343583 -2.501132,1.860346 -0.165364,0.04134 -0.268716,-0.04134 -0.08268,-0.08268 -0.08268,-0.206705 0,-0.02067 0,-0.661456 0,-0.661457 0,-1.074867 0,-0.661456 -0.351399,-0.950843 0.454751,-0.06201 0.702797,-0.103353 0.248047,-0.04134 0.620116,-0.186034 0.372069,-0.144694 0.558103,-0.372069 0.206705,-0.227376 0.351399,-0.640786 0.144694,-0.41341 0.144694,-0.992184 0,-0.39274 -0.124024,-0.640786 -0.124023,-0.248046 -0.41341,-0.558104 0.248046,-0.640785 -0.04134,-1.405594 -0.206705,-0.06201 -0.558103,0.08268 -0.351399,0.124023 -0.620116,0.289387 l -0.248046,0.186034 q -0.640785,-0.186034 -1.322912,-0.186034 -0.661456,0 -1.281572,0.186034 -0.103352,-0.08268 -0.289387,-0.186034 -0.186034,-0.124023 -0.578774,-0.268717 -0.372069,-0.165364 -0.558104,-0.103352 -0.310057,0.764809 -0.06201,1.405594 -0.475422,0.516763 -0.475422,1.19889 0,0.578774 0.144694,0.992184 0.144693,0.41341 0.330728,0.640786 0.186034,0.227375 0.537433,0.372069 0.351399,0.144693 0.599445,0.206705 0.268716,0.04134 0.702797,0.08268 -0.268717,0.248046 -0.330728,0.702797 -0.206705,0.08268 -0.434081,0.124023 -0.206705,0.04134 -0.537433,-0.08268 Q 50.861971,40.321097 50.655266,39.969699 50.531243,39.742323 50.324538,39.6183 50.138503,39.473606 49.99381,39.452936 l -0.124023,-0.02067 q -0.454751,0 -0.04134,0.310058 0.144693,0.08268 0.289387,0.268717 0.144693,0.186034 0.206705,0.330728 l 0.08268,0.165364 q 0.08268,0.248046 0.289387,0.41341 0.206705,0.165364 0.454751,0.206705 0.248046,0.04134 0.475422,0.04134 0.227375,0 0.372069,-0.02067 l 0.144693,-0.02067 q 0,0.248046 0,0.744138 0.02067,0.496092 0.02067,0.516763 0,0.124023 -0.103353,0.206705 -0.08268,0.08268 -0.248046,0.04134 -1.570958,-0.516763 -2.542472,-1.860346 -0.971514,-1.364253 -0.971514,-3.079905 0,-2.149733 1.446936,-3.596668 1.467606,-1.446936 3.617338,-1.446936 z m -3.059235,7.131325 q 0.04134,-0.04134 0.103353,0.02067 0.06201,0.06201 0.02067,0.103353 -0.04134,0.04134 -0.103352,-0.02067 -0.06201,-0.06201 -0.02067,-0.103352 z M 50.076492,39.6183 q 0.04134,-0.04134 0.103352,-0.02067 0.06201,0.04134 0.04134,0.08268 -0.02067,0.06201 -0.08268,0.02067 -0.08268,-0.04134 -0.06201,-0.08268 z m 0.682126,0.723468 q 0.04134,-0.06201 0.124024,0.02067 0.08268,0.08268 0.04134,0.144694 -0.06201,0.06201 -0.144694,-0.02067 -0.08268,-0.08268 -0.02067,-0.144693 z m -0.248046,-0.289387 q 0.06201,-0.06201 0.124023,0.04134 0.06201,0.08268 0,0.124023 -0.06201,0.04134 -0.124023,-0.04134 -0.04134,-0.103353 0,-0.124023 z" />
    </g>
  </g>
</svg>
