<?xml version="1.0" encoding="UTF-8" standalone="no"?>
<svg
   xmlns:dc="http://purl.org/dc/elements/1.1/"
   xmlns:cc="http://creativecommons.org/ns#"
   xmlns:rdf="http://www.w3.org/1999/02/22-rdf-syntax-ns#"
   xmlns:svg="http://www.w3.org/2000/svg"
   xmlns="http://www.w3.org/2000/svg"
   xmlns:sodipodi="http://sodipodi.sourceforge.net/DTD/sodipodi-0.dtd"
   xmlns:inkscape="http://www.inkscape.org/namespaces/inkscape"
   width="33.5mm"
   height="33.5mm"
   viewBox="0 0 33.5 33.5"
   version="1.1"
   id="svg8"
   inkscape:version="1.0 (4035a4fb49, 2020-05-01)"
   sodipodi:docname="branding_bottom.svg">
  <defs
     id="defs2">
    <rect
       x="50.352485"
       y="31.091734"
       width="77.190158"
       height="47.234587"
       id="rect883" />
  </defs>
  <sodipodi:namedview
     id="base"
     pagecolor="#ffffff"
     bordercolor="#666666"
     borderopacity="1.0"
     inkscape:pageopacity="0.0"
     inkscape:pageshadow="2"
     inkscape:zoom="5.329972"
     inkscape:cx="19.868224"
     inkscape:cy="58.593232"
     inkscape:document-units="mm"
     inkscape:current-layer="layer1"
     showgrid="false"
     inkscape:window-width="1920"
     inkscape:window-height="1031"
     inkscape:window-x="0"
     inkscape:window-y="0"
     inkscape:window-maximized="1"
     fit-margin-top="0"
     fit-margin-left="0"
     fit-margin-right="0"
     fit-margin-bottom="0"
     inkscape:document-rotation="0" />
  <metadata
     id="metadata5">
    <rdf:RDF>
      <cc:Work
         rdf:about="">
        <dc:format>image/svg+xml</dc:format>
        <dc:type
           rdf:resource="http://purl.org/dc/dcmitype/StillImage" />
        <dc:title></dc:title>
      </cc:Work>
    </rdf:RDF>
  </metadata>
  <g
     inkscape:label="Layer 1"
     inkscape:groupmode="layer"
     id="layer1"
     transform="translate(-48.108517,-29.906435)">
    <g
       transform="matrix(1.0089608,0,0,1.0089608,1.5647693,-1.5625225)"
       style="font-style:normal;font-weight:normal;font-size:5.36829px;line-height:1.25;font-family:sans-serif;fill:#000000;fill-opacity:1;stroke:none;stroke-width:0.134207"
       id="text889"
       aria-label="TRÅDFREE">
      <path
         id="path2262"
         style="font-style:normal;font-variant:normal;font-weight:bold;font-stretch:normal;font-family:'Roboto Condensed';-inkscape-font-specification:'Roboto Condensed,  Bold';stroke-width:0.134207"
         d="m 53.453645,33.786433 h -0.91219 v 3.218877 h -0.728703 v -3.218877 h -0.909569 v -0.597642 h 2.550462 z" />
      <path
         id="path2264"
         style="font-style:normal;font-variant:normal;font-weight:bold;font-stretch:normal;font-family:'Roboto Condensed';-inkscape-font-specification:'Roboto Condensed,  Bold';stroke-width:0.134207"
         d="m 54.583398,35.487615 v 1.517695 h -0.731325 v -3.813897 h 1.258193 q 0.539974,0 0.812583,0.283093 0.27523,0.280472 0.27523,0.825689 0,0.325033 -0.144168,0.532111 -0.144168,0.207078 -0.419398,0.335518 0.288336,0.102228 0.406291,0.330276 0.120577,0.228047 0.120577,0.584535 v 0.269987 q 0,0.159896 0.03146,0.327655 0.03408,0.167759 0.123198,0.251638 v 0.0734 h -0.749673 q -0.08912,-0.08388 -0.112713,-0.269987 -0.02097,-0.188729 -0.02097,-0.387943 v -0.259502 q 0,-0.2962 -0.09699,-0.448232 -0.09436,-0.152031 -0.296199,-0.152031 z m 0,-0.595021 h 0.458716 q 0.209699,0 0.317169,-0.136304 0.107471,-0.138925 0.107471,-0.398428 0,-0.272608 -0.09699,-0.422019 -0.09699,-0.14941 -0.304063,-0.14941 h -0.482307 z" />
      <path
         id="path2266"
         style="font-style:normal;font-variant:normal;font-weight:bold;font-stretch:normal;font-family:'Roboto Condensed';-inkscape-font-specification:'Roboto Condensed,  Bold';stroke-width:0.134207"
         d="M 58.350113,36.190106 H 57.406468 L 57.22036,37.00531 h -0.736567 l 1.019661,-3.816519 h 0.757537 l 1.014418,3.816519 h -0.733946 z m -0.807341,-0.595021 h 0.671036 l -0.332896,-1.436437 h -0.0079 z m -0.162516,-3.148103 q 0,-0.214941 0.138925,-0.356488 0.141547,-0.141547 0.353867,-0.141547 0.207077,0 0.343382,0.141547 0.138925,0.141547 0.138925,0.356488 0,0.217562 -0.136304,0.353867 -0.136304,0.133683 -0.346003,0.133683 -0.214941,0 -0.353867,-0.136305 -0.138925,-0.136304 -0.138925,-0.351245 z m 0.275229,0 q 0,0.112713 0.06029,0.180865 0.06029,0.06815 0.157274,0.06815 0.09436,0 0.14941,-0.06553 0.05767,-0.06815 0.05767,-0.183486 0,-0.115335 -0.05767,-0.183487 -0.05505,-0.07077 -0.14941,-0.07077 -0.09699,0 -0.157274,0.07077 -0.06029,0.07077 -0.06029,0.183487 z" />
      <path
         id="path2268"
         style="font-style:normal;font-variant:normal;font-weight:bold;font-stretch:normal;font-family:'Roboto Condensed';-inkscape-font-specification:'Roboto Condensed,  Bold';stroke-width:0.134207"
         d="m 59.5952,37.00531 v -3.816519 h 0.961993 q 0.710355,0 1.074707,0.387943 0.366973,0.387943 0.366973,1.190041 v 0.665794 q 0,0.804719 -0.366973,1.190041 -0.364352,0.3827 -1.08257,0.3827 z m 0.731325,-3.218877 v 2.623857 h 0.180865 q 0.44561,0 0.602884,-0.217563 0.159895,-0.220184 0.159895,-0.760158 v -0.671036 q 0,-0.539975 -0.157274,-0.757537 -0.157274,-0.217563 -0.597641,-0.217563 z" />
      <path
         id="path2270"
         style="font-style:normal;font-variant:normal;font-weight:bold;font-stretch:normal;font-family:'Roboto Condensed';-inkscape-font-specification:'Roboto Condensed,  Bold';stroke-width:0.134207"
         d="m 64.460213,35.419463 h -1.197905 v 1.585847 h -0.731325 v -3.816519 h 2.144171 v 0.597642 h -1.412846 v 1.038009 h 1.197905 z" />
      <path
         id="path2272"
         style="font-style:normal;font-variant:normal;font-weight:bold;font-stretch:normal;font-family:'Roboto Condensed';-inkscape-font-specification:'Roboto Condensed,  Bold';stroke-width:0.134207"
         d="m 65.797042,35.487615 v 1.517695 h -0.731324 v -3.813897 h 1.258193 q 0.539974,0 0.812583,0.283093 0.275229,0.280472 0.275229,0.825689 0,0.325033 -0.144168,0.532111 -0.144168,0.207078 -0.419397,0.335518 0.288336,0.102228 0.406291,0.330276 0.120577,0.228047 0.120577,0.584535 v 0.269987 q 0,0.159896 0.03145,0.327655 0.03408,0.167759 0.123198,0.251638 v 0.0734 h -0.749673 q -0.08912,-0.08388 -0.112714,-0.269987 -0.02097,-0.188729 -0.02097,-0.387943 v -0.259502 q 0,-0.2962 -0.09699,-0.448232 -0.09436,-0.152031 -0.2962,-0.152031 z m 0,-0.595021 h 0.458716 q 0.209699,0 0.31717,-0.136304 0.107471,-0.138925 0.107471,-0.398428 0,-0.272608 -0.09699,-0.422019 -0.09699,-0.14941 -0.304063,-0.14941 h -0.482308 z" />
      <path
         id="path2274"
         style="font-style:normal;font-variant:normal;font-weight:bold;font-stretch:normal;font-family:'Roboto Condensed';-inkscape-font-specification:'Roboto Condensed,  Bold';stroke-width:0.134207"
         d="m 69.878305,35.330341 h -1.205768 v 1.079949 h 1.420709 v 0.59502 h -2.152034 v -3.816519 h 2.146792 v 0.597642 h -1.415467 v 0.948887 h 1.205768 z" />
      <path
         id="path2276"
         style="font-style:normal;font-variant:normal;font-weight:bold;font-stretch:normal;font-family:'Roboto Condensed';-inkscape-font-specification:'Roboto Condensed,  Bold';stroke-width:0.134207"
         d="m 72.415662,35.330341 h -1.205768 v 1.079949 h 1.42071 v 0.59502 h -2.152035 v -3.816519 h 2.146792 v 0.597642 h -1.415467 v 0.948887 h 1.205768 z" />
    </g>
    <g
       style="font-style:normal;font-weight:normal;font-size:10.5833px;line-height:1.25;font-family:sans-serif;white-space:pre;shape-inside:url(#rect883);fill:#000000;fill-opacity:1;stroke:none"
       id="text881"
       aria-label="TRÅDFREE" />
    <path
       id="path970"
       d="M 79.311845,55.848767 78.38651,55.676691 c -0.02252,-0.0042 -0.04717,-0.02538 -0.05478,-0.04712 l -0.283639,-0.661733 c -0.01061,-0.02043 -0.0085,-0.05251 0.0045,-0.07154 l 0.539135,-0.785794 c 0.01287,-0.01891 0.01027,-0.04768 -0.0059,-0.06394 l -0.67342,-0.673386 c -0.01626,-0.01626 -0.04497,-0.01891 -0.06389,-0.0059 l -0.799584,0.548704 c -0.01891,0.01301 -0.05133,0.01531 -0.07188,0.0051 l -0.641469,-0.262587 c -0.02179,-0.0071 -0.043,-0.03158 -0.04729,-0.05415 l -0.178055,-0.957 c -0.0042,-0.02258 -0.02639,-0.04103 -0.04936,-0.04103 h -0.952416 c -0.02291,0 -0.04514,0.01846 -0.04931,0.04103 l -0.178097,0.957082 c -0.0044,0.02258 -0.02545,0.04694 -0.04727,0.05415 l -0.641524,0.262587 c -0.0206,0.01016 -0.05302,0.0078 -0.07187,-0.0051 l -0.799582,-0.548722 c -0.01897,-0.01301 -0.04773,-0.01027 -0.06395,0.0059 l -0.673442,0.673385 c -0.01621,0.01626 -0.01892,0.04503 -0.0059,0.06395 l 0.539192,0.785794 c 0.01301,0.01903 0.01497,0.05112 0.0045,0.07154 l -0.283695,0.661733 c -0.0076,0.02173 -0.03215,0.04289 -0.05478,0.04712 l -0.925279,0.172075 c -0.02263,0.0044 -0.04103,0.02645 -0.04103,0.04942 l 5.7e-5,0.952353 c 0,0.02297 0.01846,0.04532 0.04103,0.04942 l 0.902594,0.167966 c 0.02258,0.004 0.04673,0.02556 0.05358,0.04745 l 0.281783,0.703892 c 0.01005,0.02067 0.0077,0.05297 -0.0052,0.07187 l -0.51268,0.747123 c -0.01301,0.01891 -0.01027,0.04772 0.0059,0.064 l 0.673496,0.673384 c 0.01621,0.01616 0.04497,0.01879 0.06394,0.0059 l 0.733894,-0.50373 c 0.01891,-0.01301 0.0506,-0.01396 0.07035,-0.0025 l 0.323662,0.172807 c 0.02049,0.01038 0.04441,0.0017 0.05319,-0.01959 l 0.667361,-1.612511 c 0.0088,-0.02122 0,-0.04829 -0.0196,-0.06029 l -0.08099,-0.04959 c -0.01497,-0.009 -0.03531,-0.02482 -0.05123,-0.03924 -0.292197,-0.187105 -0.486055,-0.514424 -0.486055,-0.88717 0,-0.58169 0.471589,-1.053222 1.053223,-1.053222 0.581634,0 1.053166,0.471532 1.053166,1.053222 0,0.372746 -0.193803,0.700065 -0.486055,0.88717 -0.01581,0.0144 -0.0362,0.03011 -0.05112,0.03924 l -0.08099,0.04959 c -0.01947,0.01192 -0.02837,0.03907 -0.01959,0.06029 l 0.667306,1.612567 c 0.0088,0.02122 0.03265,0.03 0.05319,0.01959 l 0.32362,-0.172735 c 0.01981,-0.01152 0.05145,-0.01061 0.07035,0.0025 l 0.733951,0.50373 c 0.01891,0.01287 0.04774,0.01027 0.06389,-0.0059 l 0.673498,-0.673383 c 0.01626,-0.01626 0.01891,-0.04509 0.0059,-0.064 l -0.512684,-0.74719 c -0.01301,-0.01891 -0.01536,-0.05123 -0.0052,-0.07187 l 0.281783,-0.703894 c 0.0069,-0.0219 0.0309,-0.04333 0.05353,-0.04745 l 0.902556,-0.167972 c 0.02252,-0.004 0.04103,-0.02645 0.04103,-0.04942 l 1.13e-4,-0.952353 c 5.7e-5,-0.02302 -0.0184,-0.04521 -0.04092,-0.04947"
       fill="#0099b0"
       style="stroke-width:0.0562888" />
  </g>
</svg>
